{
    "asset" : {
        "generator" : "Khronos glTF Blender I/O v1.0.5",
        "version" : "2.0"
    },
    "scene" : 0,
    "scenes" : [
        {
            "name" : "Scene",
            "nodes" : [
                0,
                1,
                94
            ]
        }
    ],
    "nodes" : [
        {
            "name" : "Light",
            "rotation" : [
                0.16907575726509094,
                0.7558803558349609,
                -0.27217137813568115,
                0.570947527885437
            ],
            "translation" : [
                4.076245307922363,
                5.903861999511719,
                -1.0054539442062378
            ]
        },
        {
            "name" : "Camera",
            "rotation" : [
                0.483536034822464,
                0.33687159419059753,
                -0.20870360732078552,
                0.7804827094078064
            ],
            "translation" : [
                7.358891487121582,
                4.958309173583984,
                6.925790786743164
            ]
        },
        {
            "name" : "Bip001 L Toe0",
            "rotation" : [
                -3.189779818058014e-08,
                -6.05359673500061e-08,
                -1.3038516932795119e-08,
                1
            ],
            "scale" : [
                1,
                0.9999998807907104,
                1
            ],
            "translation" : [
                5.6461431086063385e-09,
                0.19401304423809052,
                0
            ]
        },
        {
            "children" : [
                2
            ],
            "name" : "Bip001 L Foot",
            "rotation" : [
                -0.2834003269672394,
                0.06029115244746208,
                -0.060222260653972626,
                0.9552081227302551
            ],
            "scale" : [
                0.9999999403953552,
                1,
                0.9999999403953552
            ],
            "translation" : [
                3.026798367500305e-09,
                0.4020500183105469,
                -9.080395102500916e-09
            ]
        },
        {
            "children" : [
                3
            ],
            "name" : "Bip001 L Calf",
            "rotation" : [
                0.048017196357250214,
                -0.0027117570862174034,
                0.001800505560822785,
                0.9988412261009216
            ],
            "scale" : [
                1,
                0.9999999403953552,
                0.9999999403953552
            ],
            "translation" : [
                7.174094207584858e-09,
                0.3995080590248108,
                4.656612873077393e-10
            ]
        },
        {
            "children" : [
                4
            ],
            "name" : "Bip001 L Thigh",
            "rotation" : [
                0.2012150138616562,
                0.008001482114195824,
                -0.012149898335337639,
                0.9794390797615051
            ],
            "scale" : [
                1,
                0.9999998211860657,
                1
            ],
            "translation" : [
                0.07345270365476608,
                -0.002291974611580372,
                -0.003414691425859928
            ]
        },
        {
            "name" : "Bip001 R Toe0",
            "rotation" : [
                -1.3969840839678227e-09,
                6.146729703004894e-08,
                2.7939681679356454e-09,
                1
            ],
            "scale" : [
                0.9999999403953552,
                0.9999998807907104,
                0.9999998807907104
            ],
            "translation" : [
                1.1059455573558807e-09,
                0.1940130591392517,
                -9.313225746154785e-10
            ]
        },
        {
            "children" : [
                6
            ],
            "name" : "Bip001 R Foot",
            "rotation" : [
                -0.2834005653858185,
                -0.06029036268591881,
                0.06022144481539726,
                0.9552081823348999
            ],
            "scale" : [
                1,
                0.9999998807907104,
                1
            ],
            "translation" : [
                3.14321368932724e-09,
                0.4020501971244812,
                5.704350769519806e-09
            ]
        },
        {
            "children" : [
                7
            ],
            "name" : "Bip001 R Calf",
            "rotation" : [
                0.04801715165376663,
                0.0027117663994431496,
                -0.0018005742458626628,
                0.9988412261009216
            ],
            "scale" : [
                0.9999999403953552,
                1,
                0.9999999403953552
            ],
            "translation" : [
                4.351022653281689e-09,
                0.3995077908039093,
                -1.7462298274040222e-09
            ]
        },
        {
            "children" : [
                8
            ],
            "name" : "Bip001 R Thigh",
            "rotation" : [
                0.20121507346630096,
                0.031204884871840477,
                -0.027724385261535645,
                0.9786573052406311
            ],
            "scale" : [
                0.9999999403953552,
                0.9999999403953552,
                0.9999999403953552
            ],
            "translation" : [
                -0.07345270365476608,
                0.00229227589443326,
                0.0034147927071899176
            ]
        },
        {
            "children" : [
                5,
                9
            ],
            "name" : "Bip001 Pelvis",
            "rotation" : [
                0.9809255599975586,
                -0.019760500639677048,
                -0.019785035401582718,
                0.19236227869987488
            ],
            "scale" : [
                1,
                0.9999999403953552,
                0.9999992251396179
            ],
            "translation" : [
                1.6653345369377348e-15,
                7.3218791030171815e-09,
                1.6065319741187523e-08
            ]
        },
        {
            "name" : "Bip001 Ponytail14",
            "rotation" : [
                6.984919309616089e-10,
                2.735760062932968e-09,
                -4.001776687800884e-09,
                1
            ],
            "translation" : [
                1.210719347000122e-08,
                0.10826744139194489,
                2.0489096641540527e-08
            ]
        },
        {
            "children" : [
                11
            ],
            "name" : "Bip001 Ponytail13",
            "rotation" : [
                0.07473265379667282,
                -0.010972019284963608,
                0.006621752865612507,
                0.9971213340759277
            ],
            "scale" : [
                1,
                0.9999998807907104,
                0.9999998807907104
            ],
            "translation" : [
                -5.587935447692871e-09,
                0.1111295148730278,
                -3.003515303134918e-08
            ]
        },
        {
            "children" : [
                12
            ],
            "name" : "Bip001 Ponytail12",
            "rotation" : [
                0.2265067845582962,
                0.012598937377333641,
                -0.019820882007479668,
                0.9737265110015869
            ],
            "scale" : [
                0.9999998807907104,
                0.9999997615814209,
                0.9999998211860657
            ],
            "translation" : [
                2.3283064365386963e-09,
                0.15330950915813446,
                9.313225746154785e-08
            ]
        },
        {
            "children" : [
                13
            ],
            "name" : "Bip001 Ponytail11",
            "rotation" : [
                0.1464935690164566,
                0.08965533971786499,
                -0.05598743259906769,
                0.9835481643676758
            ],
            "scale" : [
                1,
                0.9999999403953552,
                0.9999999403953552
            ],
            "translation" : [
                -4.656612873077393e-10,
                0.13598871231079102,
                -1.2665987014770508e-07
            ]
        },
        {
            "children" : [
                14
            ],
            "name" : "Bip001 Ponytail1",
            "rotation" : [
                0.8271552920341492,
                -0.08543586730957031,
                -0.10815034806728363,
                0.54481041431427
            ],
            "scale" : [
                1,
                1,
                1.0000001192092896
            ],
            "translation" : [
                -0.059887535870075226,
                -0.0057337284088134766,
                -0.019056526944041252
            ]
        },
        {
            "name" : "Bip001 Ponytail24",
            "rotation" : [
                4.0745362639427185e-10,
                -1.8917489796876907e-09,
                -1.6007106751203537e-09,
                1
            ],
            "translation" : [
                2.7939677238464355e-09,
                0.10826729983091354,
                4.190951585769653e-09
            ]
        },
        {
            "children" : [
                16
            ],
            "name" : "Bip001 Ponytail23",
            "rotation" : [
                0.07473290711641312,
                0.01097153965383768,
                -0.006621222943067551,
                0.997121274471283
            ],
            "scale" : [
                0.9999999403953552,
                0.9999998807907104,
                0.9999998807907104
            ],
            "translation" : [
                -1.4435499906539917e-08,
                0.11112961918115616,
                -3.259629011154175e-09
            ]
        },
        {
            "children" : [
                17
            ],
            "name" : "Bip001 Ponytail22",
            "rotation" : [
                0.22650429606437683,
                -0.012599118053913116,
                0.019821221008896828,
                0.9737269878387451
            ],
            "scale" : [
                1,
                1,
                0.9999999403953552
            ],
            "translation" : [
                1.6298145055770874e-08,
                0.15330949425697327,
                -6.752088665962219e-08
            ]
        },
        {
            "children" : [
                18
            ],
            "name" : "Bip001 Ponytail21",
            "rotation" : [
                0.1464966982603073,
                -0.08965521305799484,
                0.055988140404224396,
                0.9835477471351624
            ],
            "scale" : [
                0.9999998807907104,
                0.9999998807907104,
                0.9999999403953552
            ],
            "translation" : [
                -3.864988684654236e-08,
                0.1359892040491104,
                2.384185791015625e-07
            ]
        },
        {
            "children" : [
                19
            ],
            "name" : "Bip001 Ponytail2",
            "rotation" : [
                0.8271546959877014,
                0.16115665435791016,
                0.08153524994850159,
                0.5321612358093262
            ],
            "scale" : [
                0.9999999403953552,
                0.9999998807907104,
                0.9999999403953552
            ],
            "translation" : [
                0.057219311594963074,
                8.235941641032696e-05,
                -0.026617413386702538
            ]
        },
        {
            "name" : "Bone031",
            "rotation" : [
                2.8638170945782804e-08,
                -2.7241185307502747e-08,
                -1.3969840839678227e-09,
                1
            ],
            "scale" : [
                1,
                0.9999998807907104,
                1
            ],
            "translation" : [
                9.313225746154785e-10,
                0.054602138698101044,
                2.9336661100387573e-08
            ]
        },
        {
            "children" : [
                21
            ],
            "name" : "Bone030",
            "rotation" : [
                0.9795241355895996,
                0.09418898075819016,
                0.022206703200936317,
                0.1765442043542862
            ],
            "scale" : [
                0.9999997615814209,
                0.9999998211860657,
                0.9999990463256836
            ],
            "translation" : [
                0.03513473644852638,
                0.1565161943435669,
                0.04626522213220596
            ]
        },
        {
            "name" : "Bone034",
            "rotation" : [
                4.936010000733404e-08,
                1.1175870895385742e-08,
                -6.193295831735668e-08,
                1
            ],
            "scale" : [
                0.9999999403953552,
                0.9999999403953552,
                1
            ],
            "translation" : [
                4.0978193283081055e-08,
                0.1031612753868103,
                3.725290298461914e-09
            ]
        },
        {
            "children" : [
                23
            ],
            "name" : "Bone033",
            "rotation" : [
                -0.11777712404727936,
                0.2124469131231308,
                0.16946180164813995,
                0.9551323652267456
            ],
            "scale" : [
                1,
                0.9999998807907104,
                1
            ],
            "translation" : [
                -0.03311805799603462,
                0.09194190800189972,
                -0.12216638028621674
            ]
        },
        {
            "name" : "Bone034(mirrored)",
            "rotation" : [
                4.842877388000488e-08,
                -5.3551048040390015e-09,
                -1.257285475730896e-08,
                1
            ],
            "translation" : [
                -7.450580596923828e-09,
                0.10316209495067596,
                2.421438694000244e-08
            ]
        },
        {
            "children" : [
                25
            ],
            "name" : "Bone033(mirrored)",
            "rotation" : [
                -0.1177755668759346,
                -0.15611277520656586,
                -0.11404474079608917,
                0.9740387797355652
            ],
            "scale" : [
                1.0000001192092896,
                0.9999999403953552,
                1
            ],
            "translation" : [
                0.007942380383610725,
                0.09398107975721359,
                -0.1248173862695694
            ]
        },
        {
            "name" : "yan_l",
            "rotation" : [
                -0.28351783752441406,
                -0.7465618252754211,
                -0.5597323179244995,
                0.22127573192119598
            ],
            "scale" : [
                1,
                0.999999463558197,
                0.9999998211860657
            ],
            "translation" : [
                0.033652350306510925,
                0.07760496437549591,
                0.035620272159576416
            ]
        },
        {
            "name" : "yan_r",
            "rotation" : [
                -0.31891122460365295,
                0.730779767036438,
                0.5784952640533447,
                0.17204581201076508
            ],
            "scale" : [
                1,
                0.9999997019767761,
                1
            ],
            "translation" : [
                -0.036316774785518646,
                0.07389058917760849,
                0.04017174616456032
            ]
        },
        {
            "name" : "yanpi_l_d",
            "rotation" : [
                -0.4438668489456177,
                -0.7199978828430176,
                -0.5310733914375305,
                0.050461992621421814
            ],
            "scale" : [
                0.9999998807907104,
                0.9999996423721313,
                0.9999999403953552
            ],
            "translation" : [
                0.03453679755330086,
                0.06902971118688583,
                0.03589193895459175
            ]
        },
        {
            "name" : "yanpi_l_u",
            "rotation" : [
                -0.2106897085905075,
                -0.7273946404457092,
                -0.5487241148948669,
                0.35413098335266113
            ],
            "scale" : [
                0.9999999403953552,
                0.9999999403953552,
                0.9999999403953552
            ],
            "translation" : [
                0.03275185078382492,
                0.08150103688240051,
                0.03058006800711155
            ]
        },
        {
            "name" : "yanpi_r_d",
            "rotation" : [
                -0.44809168577194214,
                0.6966826915740967,
                0.5588937401771545,
                0.038535360246896744
            ],
            "scale" : [
                0.9999998807907104,
                0.9999999403953552,
                0.9999999403953552
            ],
            "translation" : [
                -0.036290232092142105,
                0.06551162898540497,
                0.0404648594558239
            ]
        },
        {
            "name" : "yanpi_r_u",
            "rotation" : [
                -0.259176641702652,
                0.7242707014083862,
                0.5704240202903748,
                0.2878818213939667
            ],
            "scale" : [
                0.9999999403953552,
                0.9999997615814209,
                0.9999998807907104
            ],
            "translation" : [
                -0.03643414005637169,
                0.07806479185819626,
                0.035046882927417755
            ]
        },
        {
            "name" : "zui",
            "rotation" : [
                0.9599579572677612,
                -0.00808308832347393,
                -0.05546092614531517,
                0.27448058128356934
            ],
            "scale" : [
                0.9999998807907104,
                0.9999999403953552,
                0.9999998211860657
            ],
            "translation" : [
                0.0008091912604868412,
                0.020906399935483932,
                0.02861637994647026
            ]
        },
        {
            "children" : [
                15,
                20,
                22,
                24,
                26,
                27,
                28,
                29,
                30,
                31,
                32,
                33
            ],
            "name" : "Bip001 Head",
            "rotation" : [
                -0.03648326173424721,
                -0.03308385610580444,
                -0.023577537387609482,
                0.9985082745552063
            ],
            "scale" : [
                0.9999999403953552,
                0.9999998807907104,
                0.9999998807907104
            ],
            "translation" : [
                -5.773159728050814e-15,
                0.063878133893013,
                2.793966480396648e-08
            ]
        },
        {
            "children" : [
                34
            ],
            "name" : "Bip001 Neck",
            "rotation" : [
                0.23372669517993927,
                -8.512468241406168e-08,
                -1.5464020464150963e-07,
                0.9723023772239685
            ],
            "scale" : [
                1,
                0.9999999403953552,
                0.9999999403953552
            ],
            "translation" : [
                -4.3133699278996573e-08,
                0.19738934934139252,
                -0.01282167062163353
            ]
        },
        {
            "name" : "Bip001 L Finger02",
            "rotation" : [
                1.6763808119435453e-08,
                -6.891787762697277e-08,
                5.587936335871291e-09,
                1
            ],
            "scale" : [
                0.9999999403953552,
                0.9999999403953552,
                0.9999999403953552
            ],
            "translation" : [
                3.818422555923462e-08,
                0.027793830260634422,
                2.7939677238464355e-08
            ]
        },
        {
            "children" : [
                36
            ],
            "name" : "Bip001 L Finger01",
            "rotation" : [
                0.06750805675983429,
                -0.02086269110441208,
                0.037868600338697433,
                0.9967815279960632
            ],
            "scale" : [
                0.9999999403953552,
                1,
                0.9999999403953552
            ],
            "translation" : [
                -9.406358003616333e-08,
                0.040048014372587204,
                -5.587935447692871e-08
            ]
        },
        {
            "children" : [
                37
            ],
            "name" : "Bip001 L Finger0",
            "rotation" : [
                -0.2737552523612976,
                -0.2165016233921051,
                0.034192219376564026,
                0.9364913702011108
            ],
            "scale" : [
                1.0000001192092896,
                1,
                0.9999998807907104
            ],
            "translation" : [
                0.013561980798840523,
                0.041289377957582474,
                -0.022251205518841743
            ]
        },
        {
            "name" : "Bip001 L Finger12",
            "rotation" : [
                1.7462298274040222e-09,
                3.725290298461914e-09,
                -1.4319084584712982e-08,
                1
            ],
            "translation" : [
                -7.048947736620903e-08,
                0.030891593545675278,
                -3.0209776014089584e-08
            ]
        },
        {
            "children" : [
                39
            ],
            "name" : "Bip001 L Finger11",
            "rotation" : [
                -0.03155231848359108,
                -0.0440986230969429,
                0.03027115948498249,
                0.9980698823928833
            ],
            "scale" : [
                0.9999998211860657,
                0.9999999403953552,
                1
            ],
            "translation" : [
                -7.008202373981476e-08,
                0.023754067718982697,
                -4.4587068259716034e-08
            ]
        },
        {
            "children" : [
                40
            ],
            "name" : "Bip001 L Finger1",
            "rotation" : [
                0.06988838315010071,
                0.07498414069414139,
                -0.033011507242918015,
                0.9941847324371338
            ],
            "translation" : [
                0.014148534275591373,
                0.11392862349748611,
                -0.016606103628873825
            ]
        },
        {
            "name" : "Bip001 L Finger22",
            "rotation" : [
                2.3446042973773729e-07,
                3.203749656677246e-07,
                -2.4633482098579407e-07,
                1
            ],
            "scale" : [
                1,
                1.0000001192092896,
                1.0000001192092896
            ],
            "translation" : [
                -9.313225746154785e-10,
                0.030842401087284088,
                4.563480615615845e-08
            ]
        },
        {
            "children" : [
                42
            ],
            "name" : "Bip001 L Finger21",
            "rotation" : [
                0.0034843692556023598,
                0.004878639709204435,
                -0.0035612927749753,
                0.9999756813049316
            ],
            "scale" : [
                1,
                0.9999999403953552,
                1
            ],
            "translation" : [
                4.377216100692749e-08,
                0.027818521484732628,
                -3.632158041000366e-08
            ]
        },
        {
            "children" : [
                43
            ],
            "name" : "Bip001 L Finger2",
            "rotation" : [
                0.044124264270067215,
                0.0197797529399395,
                0.013109727762639523,
                0.9987443089485168
            ],
            "scale" : [
                1,
                0.9999999403953552,
                0.9999998807907104
            ],
            "translation" : [
                0.0036307238042354584,
                0.11289017647504807,
                0.00027986615896224976
            ]
        },
        {
            "name" : "Bip001 L Finger32",
            "rotation" : [
                3.0908267945051193e-07,
                2.942979335784912e-07,
                -2.578599378466606e-07,
                1
            ],
            "scale" : [
                1,
                1.0000001192092896,
                1
            ],
            "translation" : [
                -3.166496753692627e-08,
                0.029000427573919296,
                -3.91155481338501e-08
            ]
        },
        {
            "children" : [
                45
            ],
            "name" : "Bip001 L Finger31",
            "rotation" : [
                0.0013007291126996279,
                0.0016201145481318235,
                -0.0009971312247216702,
                0.9999973773956299
            ],
            "scale" : [
                0.9999998807907104,
                0.9999998807907104,
                0.9999999403953552
            ],
            "translation" : [
                -2.421438694000244e-08,
                0.024753183126449585,
                -5.4016709327697754e-08
            ]
        },
        {
            "children" : [
                46
            ],
            "name" : "Bip001 L Finger3",
            "rotation" : [
                0.06502744555473328,
                0.05918748676776886,
                -0.017680926248431206,
                0.9959697127342224
            ],
            "scale" : [
                1,
                0.9999999403953552,
                1
            ],
            "translation" : [
                -0.010154537856578827,
                0.10851188004016876,
                0.01236647367477417
            ]
        },
        {
            "name" : "Bip001 L Finger42",
            "rotation" : [
                -2.7008351111135198e-08,
                -4.440892098500626e-16,
                1.7229465854029513e-08,
                1
            ],
            "scale" : [
                1,
                1.0000001192092896,
                1.0000001192092896
            ],
            "translation" : [
                -3.725290298461914e-09,
                0.026995548978447914,
                4.470348358154297e-08
            ]
        },
        {
            "children" : [
                48
            ],
            "name" : "Bip001 L Finger41",
            "rotation" : [
                0.02136879973113537,
                0.026419613510370255,
                -0.017137102782726288,
                0.9992756247520447
            ],
            "scale" : [
                1.0000001192092896,
                0.9999999403953552,
                1
            ],
            "translation" : [
                -2.60770320892334e-08,
                0.017632193863391876,
                -3.725290298461914e-09
            ]
        },
        {
            "children" : [
                49
            ],
            "name" : "Bip001 L Finger4",
            "rotation" : [
                0.05780298635363579,
                0.035980697721242905,
                0.004770230036228895,
                0.9976680874824524
            ],
            "scale" : [
                1,
                1.0000001192092896,
                0.9999999403953552
            ],
            "translation" : [
                -0.021186787635087967,
                0.10510220378637314,
                0.026210971176624298
            ]
        },
        {
            "children" : [
                38,
                41,
                44,
                47,
                50
            ],
            "name" : "Bip001 L Hand",
            "rotation" : [
                -0.04008990153670311,
                -0.02422415465116501,
                -0.0042085954919457436,
                0.9988935589790344
            ],
            "scale" : [
                1,
                0.9999998211860657,
                1
            ],
            "translation" : [
                -7.636845111846924e-08,
                0.1545739769935608,
                -2.2351741790771484e-08
            ]
        },
        {
            "name" : "Bip001 L ForeTwist1",
            "rotation" : [
                -1.743319266722665e-08,
                7.450580596923828e-09,
                1.955777406692505e-08,
                1
            ],
            "scale" : [
                1,
                1.0000001192092896,
                1.0000001192092896
            ],
            "translation" : [
                -6.51925802230835e-08,
                0.07728713005781174,
                -5.960464477539063e-08
            ]
        },
        {
            "children" : [
                52
            ],
            "name" : "Bip001 L ForeTwist",
            "rotation" : [
                4.2640027686502435e-07,
                -3.576278970740532e-07,
                8.8906386963572e-07,
                1
            ],
            "scale" : [
                1,
                0.9999998807907104,
                0.9999999403953552
            ],
            "translation" : [
                -1.1175870895385742e-08,
                -5.184847395867109e-08,
                -3.166496753692627e-08
            ]
        },
        {
            "children" : [
                51,
                53
            ],
            "name" : "Bip001 L Forearm",
            "rotation" : [
                -0.007203420624136925,
                -3.556706360541284e-05,
                -0.006677655503153801,
                0.9999517798423767
            ],
            "scale" : [
                0.9999999403953552,
                0.9999998807907104,
                1
            ],
            "translation" : [
                -5.960464477539063e-08,
                0.2165393978357315,
                9.313225746154785e-09
            ]
        },
        {
            "children" : [
                54
            ],
            "name" : "Bip001 L UpperArm",
            "rotation" : [
                -0.37423640489578247,
                -0.3695701062679291,
                0.1674995720386505,
                0.8338518738746643
            ],
            "scale" : [
                1.0000001192092896,
                1.0000001192092896,
                1
            ],
            "translation" : [
                4.889443516731262e-09,
                0.12246330827474594,
                1.2462260201573372e-07
            ]
        },
        {
            "children" : [
                55
            ],
            "name" : "Bip001 L Clavicle",
            "rotation" : [
                -0.4507538080215454,
                -0.4636187255382538,
                -0.5331917405128479,
                0.5455137491226196
            ],
            "scale" : [
                1.0000001192092896,
                1.0000001192092896,
                0.9999998807907104
            ],
            "translation" : [
                0.02182074449956417,
                0.12237146496772766,
                -0.00995600689202547
            ]
        },
        {
            "name" : "Bip001 R Finger02",
            "rotation" : [
                -2.7939677238464355e-08,
                1.6763806343078613e-08,
                2.60770320892334e-08,
                1
            ],
            "translation" : [
                3.91155481338501e-08,
                0.027794014662504196,
                -3.725290298461914e-09
            ]
        },
        {
            "children" : [
                57
            ],
            "name" : "Bip001 R Finger01",
            "rotation" : [
                0.06751207262277603,
                0.020854685455560684,
                -0.037864383310079575,
                0.996781587600708
            ],
            "translation" : [
                5.820766091346741e-08,
                0.04004810377955437,
                -4.842877388000488e-08
            ]
        },
        {
            "children" : [
                58
            ],
            "name" : "Bip001 R Finger0",
            "rotation" : [
                -0.27375859022140503,
                0.216509148478508,
                -0.034197092056274414,
                0.9364884495735168
            ],
            "scale" : [
                1.0000001192092896,
                1.0000001192092896,
                1.0000001192092896
            ],
            "translation" : [
                -0.013561926782131195,
                0.0412895604968071,
                -0.02225111424922943
            ]
        },
        {
            "name" : "Bip001 R Finger12",
            "rotation" : [
                -2.632150426506996e-07,
                3.3527612686157227e-07,
                -2.5762710720300674e-07,
                1
            ],
            "translation" : [
                -4.691537469625473e-08,
                0.030891254544258118,
                -4.668254405260086e-08
            ]
        },
        {
            "children" : [
                60
            ],
            "name" : "Bip001 R Finger11",
            "rotation" : [
                -0.03155643865466118,
                0.044102564454078674,
                -0.030272366479039192,
                0.9980695247650146
            ],
            "scale" : [
                0.9999998211860657,
                0.9999998807907104,
                1
            ],
            "translation" : [
                -2.403976395726204e-08,
                0.02375369518995285,
                2.2584572434425354e-08
            ]
        },
        {
            "children" : [
                61
            ],
            "name" : "Bip001 R Finger1",
            "rotation" : [
                0.06989099085330963,
                -0.07498675584793091,
                0.033012133091688156,
                0.9941843152046204
            ],
            "scale" : [
                1.0000001192092896,
                1,
                1.0000001192092896
            ],
            "translation" : [
                -0.014148755930364132,
                0.11392898112535477,
                -0.016605980694293976
            ]
        },
        {
            "name" : "Bip001 R Finger22",
            "rotation" : [
                -1.9790606486935758e-08,
                -3.725290653733282e-08,
                1.6298146832127713e-08,
                1
            ],
            "scale" : [
                0.9999999403953552,
                0.9999998807907104,
                0.9999998807907104
            ],
            "translation" : [
                -3.725290298461914e-09,
                0.030842721462249756,
                -2.3283064365386963e-08
            ]
        },
        {
            "children" : [
                63
            ],
            "name" : "Bip001 R Finger21",
            "rotation" : [
                0.0034807203337550163,
                -0.004872549325227737,
                0.003556388197466731,
                0.999975860118866
            ],
            "scale" : [
                0.9999999403953552,
                1.0000001192092896,
                0.9999999403953552
            ],
            "translation" : [
                2.7939677238464355e-09,
                0.02781824767589569,
                -8.009374141693115e-08
            ]
        },
        {
            "children" : [
                64
            ],
            "name" : "Bip001 R Finger2",
            "rotation" : [
                0.044125717133283615,
                -0.01978076621890068,
                -0.013109988532960415,
                0.9987441301345825
            ],
            "scale" : [
                1.0000001192092896,
                1,
                1.0000001192092896
            ],
            "translation" : [
                -0.0036306213587522507,
                0.11289026588201523,
                0.0002796212211251259
            ]
        },
        {
            "name" : "Bip001 R Finger32",
            "rotation" : [
                -1.1641443364851511e-10,
                3.725290298461914e-09,
                -1.1757947504520416e-08,
                1
            ],
            "scale" : [
                1,
                0.9999998211860657,
                0.9999999403953552
            ],
            "translation" : [
                2.0489096641540527e-08,
                0.02900068275630474,
                -5.774199962615967e-08
            ]
        },
        {
            "children" : [
                66
            ],
            "name" : "Bip001 R Finger31",
            "rotation" : [
                0.0012972562108188868,
                -0.0016137553611770272,
                0.0009913945104926825,
                0.9999973773956299
            ],
            "scale" : [
                1,
                0.9999999403953552,
                0.9999999403953552
            ],
            "translation" : [
                8.381903171539307e-08,
                0.024752674624323845,
                1.1175870895385742e-08
            ]
        },
        {
            "children" : [
                67
            ],
            "name" : "Bip001 R Finger3",
            "rotation" : [
                0.06503106653690338,
                -0.059191975742578506,
                0.017683133482933044,
                0.9959691166877747
            ],
            "scale" : [
                1.0000001192092896,
                1,
                1.000000238418579
            ],
            "translation" : [
                0.010154586285352707,
                0.10851225256919861,
                0.012366386130452156
            ]
        },
        {
            "name" : "Bip001 R Finger42",
            "rotation" : [
                -2.0023435354232788e-08,
                -3.725290298461914e-08,
                2.2817403078079224e-08,
                1
            ],
            "translation" : [
                5.960464477539063e-08,
                0.026995854452252388,
                5.960464477539063e-08
            ]
        },
        {
            "children" : [
                69
            ],
            "name" : "Bip001 R Finger41",
            "rotation" : [
                0.021379703655838966,
                -0.0264323428273201,
                0.017144693061709404,
                0.9992749094963074
            ],
            "translation" : [
                1.862645149230957e-08,
                0.01763213984668255,
                2.60770320892334e-08
            ]
        },
        {
            "children" : [
                70
            ],
            "name" : "Bip001 R Finger4",
            "rotation" : [
                0.0577990859746933,
                -0.03597557172179222,
                -0.004773498512804508,
                0.9976685047149658
            ],
            "scale" : [
                1.0000001192092896,
                1,
                1.0000001192092896
            ],
            "translation" : [
                0.02118704468011856,
                0.10510216653347015,
                0.026210695505142212
            ]
        },
        {
            "children" : [
                59,
                62,
                65,
                68,
                71
            ],
            "name" : "Bip001 R Hand",
            "rotation" : [
                -0.040087658911943436,
                0.0242203027009964,
                0.004211584106087685,
                0.9988937377929688
            ],
            "scale" : [
                0.9999999403953552,
                0.9999999403953552,
                1
            ],
            "translation" : [
                -1.0803341865539551e-07,
                0.15457385778427124,
                2.7939677238464355e-07
            ]
        },
        {
            "name" : "Bip001 R ForeTwist1",
            "rotation" : [
                1.6909325495362282e-08,
                0,
                2.4883775040507317e-08,
                1
            ],
            "translation" : [
                2.9802322387695312e-08,
                0.07728681713342667,
                -2.0489096641540527e-08
            ]
        },
        {
            "children" : [
                73
            ],
            "name" : "Bip001 R ForeTwist",
            "rotation" : [
                1.665350396251597e-06,
                -2.2687017917633057e-06,
                1.5360420775323291e-06,
                1
            ],
            "scale" : [
                1,
                0.9999999403953552,
                1
            ],
            "translation" : [
                4.284083843231201e-08,
                -6.700429366901517e-08,
                -2.0675361156463623e-07
            ]
        },
        {
            "children" : [
                72,
                74
            ],
            "name" : "Bip001 R Forearm",
            "rotation" : [
                -0.007205264642834663,
                3.8223322917474434e-05,
                0.0066756983287632465,
                0.9999517798423767
            ],
            "scale" : [
                1,
                0.9999999403953552,
                1
            ],
            "translation" : [
                8.381903171539307e-08,
                0.21653951704502106,
                -6.705522537231445e-08
            ]
        },
        {
            "children" : [
                75
            ],
            "name" : "Bip001 R UpperArm",
            "rotation" : [
                -0.3742365837097168,
                0.369570791721344,
                -0.16749881207942963,
                0.83385169506073
            ],
            "scale" : [
                0.9999998211860657,
                0.9999997615814209,
                0.9999998211860657
            ],
            "translation" : [
                -4.903995431959629e-09,
                0.12246321886777878,
                -4.196772351861e-08
            ]
        },
        {
            "children" : [
                76
            ],
            "name" : "Bip001 R Clavicle",
            "rotation" : [
                -0.450752854347229,
                0.46361908316612244,
                0.5331923365592957,
                0.5455136299133301
            ],
            "scale" : [
                0.9999999403953552,
                0.9999998807907104,
                0.9999999403953552
            ],
            "translation" : [
                -0.021820861846208572,
                0.12237133085727692,
                -0.009955995716154575
            ]
        },
        {
            "name" : "Bone039",
            "rotation" : [
                0.8437680006027222,
                1.277909973396163e-06,
                -1.5230426697598887e-06,
                0.5367080569267273
            ],
            "scale" : [
                1,
                1,
                1.000000238418579
            ],
            "translation" : [
                1.8372139720668201e-07,
                0.04566924273967743,
                0.043888866901397705
            ]
        },
        {
            "children" : [
                78
            ],
            "name" : "Bone038",
            "rotation" : [
                5.960464477539063e-08,
                3.552713678800501e-13,
                0,
                1
            ],
            "translation" : [
                3.552713678800501e-13,
                0.06620992720127106,
                2.2351528627950756e-08
            ]
        },
        {
            "children" : [
                79
            ],
            "name" : "Bone037",
            "rotation" : [
                -0.046250272542238235,
                -4.735883578632638e-07,
                2.2383512998658261e-07,
                0.9989299774169922
            ],
            "translation" : [
                -2.3803181647963356e-13,
                0.08174964785575867,
                -1.2293476459035446e-07
            ]
        },
        {
            "children" : [
                80
            ],
            "name" : "Bone036",
            "rotation" : [
                0.9444970488548279,
                -3.017457572696003e-07,
                -5.763205308539909e-07,
                0.3285199999809265
            ],
            "scale" : [
                1,
                0.9999998807907104,
                0.9999991655349731
            ],
            "translation" : [
                1.60583837782724e-07,
                0.17121638357639313,
                0.03273368626832962
            ]
        },
        {
            "children" : [
                35,
                56,
                77,
                81
            ],
            "name" : "Bip001 Spine2",
            "rotation" : [
                -0.07777397334575653,
                -1.270970955147277e-07,
                -1.2728884257739992e-07,
                0.996971070766449
            ],
            "scale" : [
                1,
                1.0000001192092896,
                0.9999999403953552
            ],
            "translation" : [
                -4.0870085094013575e-15,
                0.11613249778747559,
                -2.1163626406917047e-16
            ]
        },
        {
            "children" : [
                82
            ],
            "name" : "Bip001 Spine1",
            "rotation" : [
                0.14111997187137604,
                3.4107490591850365e-06,
                3.3595563309063436e-06,
                0.9899924993515015
            ],
            "scale" : [
                1,
                1.0000001192092896,
                1
            ],
            "translation" : [
                -5.456357712319004e-07,
                0.09624318033456802,
                0.03273143991827965
            ]
        },
        {
            "name" : "Bone012",
            "rotation" : [
                -1.4901161193847656e-08,
                -2.1420419216156006e-08,
                2.0023435354232788e-08,
                1
            ],
            "translation" : [
                -1.9266735762357712e-08,
                0.13338865339756012,
                -2.9103830456733704e-09
            ]
        },
        {
            "children" : [
                84
            ],
            "name" : "Bone011",
            "rotation" : [
                -0.9643741846084595,
                0.12307499349117279,
                0.1612415909767151,
                0.16981194913387299
            ],
            "scale" : [
                1.0000003576278687,
                1.0000001192092896,
                1.0000003576278687
            ],
            "translation" : [
                -0.1525774896144867,
                0.07368101179599762,
                0.028620749711990356
            ]
        },
        {
            "name" : "Bone012(mirrored)",
            "rotation" : [
                -2.3283066141743802e-08,
                -5.587935447692871e-09,
                2.7939677238464355e-08,
                1
            ],
            "scale" : [
                1,
                0.9999998807907104,
                1
            ],
            "translation" : [
                2.954038791358471e-08,
                0.13338808715343475,
                1.1292286217212677e-08
            ]
        },
        {
            "children" : [
                86
            ],
            "name" : "Bone011(mirrored)",
            "rotation" : [
                -0.9643738865852356,
                -0.123080313205719,
                -0.161235973238945,
                0.16981512308120728
            ],
            "scale" : [
                0.9999994039535522,
                0.9999997615814209,
                0.9999994039535522
            ],
            "translation" : [
                0.1525796353816986,
                0.07368320971727371,
                0.02861892431974411
            ]
        },
        {
            "name" : "Bone015",
            "rotation" : [
                -5.21540641784668e-08,
                -2.5135449277513544e-12,
                -9.14823772291129e-14,
                1
            ],
            "translation" : [
                1.4210854715202004e-14,
                0.14216692745685577,
                -1.4901134548495065e-08
            ]
        },
        {
            "children" : [
                88
            ],
            "name" : "Bone014",
            "rotation" : [
                -0.96327143907547,
                -2.797196202664054e-06,
                3.903513515979284e-06,
                0.26852962374687195
            ],
            "scale" : [
                1,
                1,
                0.9999998807907104
            ],
            "translation" : [
                -1.5858508959354367e-06,
                0.12069257348775864,
                -0.08997103571891785
            ]
        },
        {
            "children" : [
                83,
                85,
                87,
                89
            ],
            "name" : "Bip001 Spine",
            "rotation" : [
                -0.13242487609386444,
                -3.2591276521998225e-06,
                -3.1774457056599203e-06,
                0.9911930561065674
            ],
            "translation" : [
                8.326672684688674e-15,
                0.06639562547206879,
                -1.7113052308559418e-08
            ]
        },
        {
            "children" : [
                10,
                90
            ],
            "name" : "Bip001",
            "rotation" : [
                -3.142475790696153e-08,
                0.7066769599914551,
                0.7075363993644714,
                2.2183756698268553e-07
            ],
            "scale" : [
                1,
                1.0000003576278687,
                1
            ],
            "translation" : [
                2.2060703486204147e-08,
                -0.004027664661407471,
                0.9789945483207703
            ]
        },
        {
            "children" : [
                91
            ],
            "name" : "Root Ground",
            "rotation" : [
                0,
                0.7071068286895752,
                0.7071068286895752,
                0
            ]
        },
        {
            "mesh" : 0,
            "name" : "5_Uta_1.0_0_0",
            "skin" : 0
        },
        {
            "children" : [
                93,
                92
            ],
            "name" : "Armature"
        }
    ],
    "materials" : [
        {
            "doubleSided" : true,
            "name" : "5_Uta_1.0_0_0",
            "pbrMetallicRoughness" : {
                "baseColorTexture" : {
                    "index" : 0,
                    "texCoord" : 0
                },
                "metallicFactor" : 0,
                "roughnessFactor" : 0.5
            }
        }
    ],
    "meshes" : [
        {
            "name" : "5_Uta_1.0_0_0",
            "primitives" : [
                {
                    "attributes" : {
                        "POSITION" : 0,
                        "NORMAL" : 1,
                        "TEXCOORD_0" : 2,
                        "COLOR_0" : 3,
                        "JOINTS_0" : 4,
                        "WEIGHTS_0" : 5
                    },
                    "indices" : 6,
                    "material" : 0
                }
            ]
        }
    ],
    "textures" : [
        {
            "source" : 0
        }
    ],
    "images" : [
        {
            "mimeType" : "image/png",
            "name" : "tex_role_wuta",
            "uri" : "tex_role_wuta.png"
        }
    ],
    "skins" : [
        {
            "inverseBindMatrices" : 7,
            "joints" : [
                92,
                91,
                10,
                5,
                4,
                3,
                2,
                9,
                8,
                7,
                6,
                90,
                83,
                82,
                35,
                34,
                15,
                14,
                13,
                12,
                11,
                20,
                19,
                18,
                17,
                16,
                22,
                21,
                24,
                23,
                26,
                25,
                27,
                28,
                29,
                30,
                31,
                32,
                33,
                56,
                55,
                54,
                51,
                38,
                37,
                36,
                41,
                40,
                39,
                44,
                43,
                42,
                47,
                46,
                45,
                50,
                49,
                48,
                53,
                52,
                77,
                76,
                75,
                72,
                59,
                58,
                57,
                62,
                61,
                60,
                65,
                64,
                63,
                68,
                67,
                66,
                71,
                70,
                69,
                74,
                73,
                81,
                80,
                79,
                78,
                85,
                84,
                87,
                86,
                89,
                88
            ],
            "name" : "Armature"
        }
    ],
    "accessors" : [
        {
            "bufferView" : 0,
            "componentType" : 5126,
            "count" : 10080,
            "max" : [
                0.5365251898765564,
                1.8416591882705688,
                0.19369715452194214
            ],
            "min" : [
                -0.5365251898765564,
                0.0012906801421195269,
                -0.18742023408412933
            ],
            "type" : "VEC3"
        },
        {
            "bufferView" : 1,
            "componentType" : 5126,
            "count" : 10080,
            "type" : "VEC3"
        },
        {
            "bufferView" : 2,
            "componentType" : 5126,
            "count" : 10080,
            "type" : "VEC2"
        },
        {
            "bufferView" : 3,
            "componentType" : 5126,
            "count" : 10080,
            "type" : "VEC4"
        },
        {
            "bufferView" : 4,
            "componentType" : 5123,
            "count" : 10080,
            "type" : "VEC4"
        },
        {
            "bufferView" : 5,
            "componentType" : 5126,
            "count" : 10080,
            "type" : "VEC4"
        },
        {
            "bufferView" : 6,
            "componentType" : 5123,
            "count" : 38766,
            "type" : "SCALAR"
        },
        {
            "bufferView" : 7,
            "componentType" : 5126,
            "count" : 91,
            "type" : "MAT4"
        }
    ],
    "bufferViews" : [
        {
            "buffer" : 0,
            "byteLength" : 120960,
            "byteOffset" : 0
        },
        {
            "buffer" : 0,
            "byteLength" : 120960,
            "byteOffset" : 120960
        },
        {
            "buffer" : 0,
            "byteLength" : 80640,
            "byteOffset" : 241920
        },
        {
            "buffer" : 0,
            "byteLength" : 161280,
            "byteOffset" : 322560
        },
        {
            "buffer" : 0,
            "byteLength" : 80640,
            "byteOffset" : 483840
        },
        {
            "buffer" : 0,
            "byteLength" : 161280,
            "byteOffset" : 564480
        },
        {
            "buffer" : 0,
            "byteLength" : 77532,
            "byteOffset" : 725760
        },
        {
            "buffer" : 0,
            "byteLength" : 5824,
            "byteOffset" : 803292
        }
    ],
    "buffers" : [
        {
            "byteLength" : 809116,
            "uri" : "Uta - One Piece.bin"
        }
    ]
}
