# File produced by Open Asset Import Library (http://www.assimp.sf.net)
# (assimp v5.0.0)

mtllib 1746374803_bombhei.mtl

# 74 vertex positions and colors
v  -1.384766 12.52051 -1.111328 1 1 1
v  0 11.21777 0.019042971 1 1 1
v  0 12.74023 -0.58154303 1 1 1
v  1.366699 11.00098 -0.50390631 1 1 1
v  1.384766 12.52051 -1.111328 1 1 1
v  1.875 10.47705 -1.766113 1 1 1
v  1.958496 11.98975 -2.390625 1 1 1
v  1.366699 9.9536133 -3.0288091 1 1 1
v  1.384766 11.45898 -3.6699219 1 1 1
v  0 9.7363281 -3.5517581 1 1 1
v  0 11.23926 -4.199707 1 1 1
v  -1.366699 9.9536133 -3.0288091 1 1 1
v  -1.384766 11.45898 -3.6699219 1 1 1
v  -1.933105 10.47705 -1.766113 1 1 1
v  -1.958496 11.98975 -2.390625 1 1 1
v  -1.366699 11.00098 -0.50390631 1 1 1
v  -1.875 0.99755859 -1.6235349 1 1 1
v  -1.875 1.708496 -0.80761719 1 1 1
v  -0.82470697 0 -0.84082031 1 1 1
v  -1.336426 1.620605 0.40869141 1 1 1
v  -0.56152338 0.32568359 2.269043 1 1 1
v  -1.169434 1.32666 2.383301 1 1 1
v  -1.875 0.46337891 3.410156 1 1 1
v  -2.589355 1.351074 2.383301 1 1 1
v  -3.188477 0.32568359 2.269043 1 1 1
v  -2.4389651 1.790527 0.41894531 1 1 1
v  -3.0527339 0 -0.88916022 1 1 1
v  1.875 0.99755859 -1.6235349 1 1 1
v  1.875 1.708496 -0.80761719 1 1 1
v  3.0527339 0 -0.88916022 1 1 1
v  2.4389651 1.790527 0.41894531 1 1 1
v  3.188477 0.32568359 2.269043 1 1 1
v  2.589355 1.351074 2.383301 1 1 1
v  1.875 0.46337891 3.410156 1 1 1
v  1.169434 1.32666 2.383301 1 1 1
v  0.56152338 0.32568359 2.269043 1 1 1
v  1.336426 1.620605 0.40869141 1 1 1
v  0.82470697 0 -0.84082031 1 1 1
v  -1.875 0 -1.688477 1 1 1
v  -1.032715 0 3.008301 1 1 1
v  -2.714844 0 3.008301 1 1 1
v  1.032715 0 3.008301 1 1 1
v  1.875 0 -1.688477 1 1 1
v  1.875 4.7255859 0.0083007812 1 1 1
v  -0.43359381 12.875 -3.300781 1 1 1
v  0.434082 12.875 -3.300781 1 1 1
v  0 10.60938 -1.626953 1 1 1
v  0 13.29834 -2.8486331 1 1 1
v  0 7.2446289 -8.6132812 1 1 1
v  -0.63867188 6.605957 -8.612793 1 1 1
v  0 6.608398 0.01416016 1 1 1
v  0 5.9672852 -8.612793 1 1 1
v  0.63867188 6.605957 -8.612793 1 1 1
v  2.714844 0 3.008301 1 1 1
v  -1.875 4.7255859 0.0083007812 1 1 1
v  0 6.6147461 -8.340332 1 1 1
v  0 6.6191411 -5.0029302 1 1 1
v  0 9.9521484 -8.3408203 1 1 1
v  0 9.953125 -5.003418 1 1 1
v  0 6.6220698 -8.340332 1 1 1
v  0 3.284668 -8.3393555 1 1 1
v  0 3.285645 -5.0019531 1 1 1
v  -0.48291019 9.0874023 3.925293 1 1 1
v  -1.725098 9.1064453 3.6469731 1 1 1
v  -0.63330078 6.5273438 4.499023 1 1 1
v  -1.8725591 6.5273438 4.203125 1 1 1
v  1.8725591 6.5273438 4.203125 1 1 1
v  1.7255859 9.1064453 3.6469731 1 1 1
v  0.63330078 6.5273438 4.499023 1 1 1
v  0.48291019 9.0874023 3.925293 1 1 1
v  0.01806641 13.25977 0 1 1 1
v  -6.4599609 6.7553711 0 1 1 1
v  -0.01806641 0.2373047 0 1 1 1
v  6.4594731 6.719727 0 1 1 1

# 51 UV coordinates
vt 0.75 0.09375 0
vt 0.99804688 0.234375 0
vt 0.99804688 0.09375 0
vt 1.25 0.234375 0
vt 1.25 0.09375 0
vt 1.46875 0.234375 0
vt 1.46875 0.09375 0
vt 0.75 0.234375 0
vt 0.53125 0.234375 0
vt 0.53125 0.09375 0
vt 1 0.609375 0
vt 1 0.59375 0
vt 1.21875 0.59375 0
vt 1.125 0.546875 0
vt 1.21875 0.328125 0
vt 1.125 0.359375 0
vt 1 0.265625 0
vt 0.875 0.359375 0
vt 0.78125 0.328125 0
vt 0.875 0.546875 0
vt 0.78125 0.59375 0
vt 0.8125 0.59375 0
vt 0.8125 0.640625 0
vt 0.78125 0.6875 0
vt 1.03125 0.6875 0
vt 0.8125 0.734375 0
vt 1 0.15625 0
vt 0.53125 -0.0625 0
vt 0.53125 0 0
vt 1.125 0 0
vt 0.53125 0.0625 0
vt 2.46875 0.234375 0
vt 1.53125 0.234375 0
vt 2.46875 -0.234375 0
vt 1.53125 -0.234375 0
vt 0.84375 0.15625 0
vt 0.90625 0.203125 0
vt 0.90625 0.125 0
vt 1 0.125 0
vt 1.15625 0.15625 0
vt 1.09375 0.125 0
vt 1.09375 0.203125 0
vt 1 0.203125 0
vt 1.21875 0.765625 0
vt 0.78125 0.765625 0
vt 1.21875 1.234375 0
vt 0.78125 1.234375 0
vt -0.71875 0.265625 0
vt 0.71875 0.265625 0
vt 0.71875 0.984375 0
vt -0.71875 0.984375 0

# 53 vertex normals
vn -38.625 18.5 47.5
vn -8.75 23.25 59
vn 8.75 23.25 59
vn 39.25 18.375 47.125
vn 51.5 12.875 35.75
vn 63.375 1 9
vn 63.5 -5.375 -6.375
vn 51.5 -16.125 -34.375
vn 38.625 -20.375 -46.75
vn 8.75 -25.125 -58.25
vn -8.75 -25.125 -58.25
vn -38.625 -20.375 -46.75
vn -51 -15.625 -35.375
vn -63.375 -4.25 -7.75
vn -63.375 2.375 8.5
vn -51 13.875 36.125
vn 2.625 26.125 -58.375
vn 2.125 43.875 -46.5
vn 57.75 -4.75 -27.125
vn 52 37.125 4.125
vn 58.5 14.875 21.5
vn 25.125 53 25.5
vn -0.125 25.875 58.5
vn -28.25 48.375 30.875
vn -58.75 15.5 20.125
vn -42.5 47.375 6.625
vn -58.5 -6 -25.25
vn -2.625 26.125 -58.375
vn -2.125 43.875 -46.5
vn 42.5 47.375 6.625
vn 28.25 48.375 30.875
vn -25.125 53 25.5
vn -52 37.125 4.125
vn -1.25 -56 -31
vn 22.375 -53.875 26.375
vn -22 -54.25 26
vn -6.75 57.125 28
vn -56.25 -24.375 -18.375
vn 56.25 -24.375 -18.375
vn 0 -22.125 60
vn 0 63.875 4.75
vn -63.875 0 4.75
vn 0 0 63.875
vn 0 -63.875 4.75
vn 63.875 0 4.75
vn 6.75 57.125 28
vn 11.125 0 -63
vn -11.125 0 63
vn 11.125 46.875 -42.125
vn -11.125 49.625 38.75
vn 11.125 -43.75 -45.375
vn -11.125 -43.75 45.375
vn 0 59.125 -24.5

# Mesh 'skl_root-mesh' with 85 faces
g skl_root-mesh
usemtl mat_bombhei
f  1/1/1 2/2/2 3/3/3
f  4/4/4 3/3/4 2/2/2
f  3/3/3 4/4/4 5/5/5
f  6/6/6 5/5/6 4/4/4
f  5/5/5 6/6/6 7/7/7
f  8/4/8 7/7/8 6/6/6
f  7/7/7 8/4/8 9/5/9
f  10/2/10 9/5/10 8/4/8
f  9/5/9 10/2/10 11/3/11
f  12/8/12 11/3/12 10/2/10
f  11/3/11 12/8/12 13/1/13
f  14/9/14 13/1/14 12/8/12
f  13/1/13 14/9/14 15/10/15
f  16/8/16 15/10/16 14/9/14
f  15/10/15 16/8/16 1/1/1
f  2/2/2 1/1/2 16/8/16
f  17/11/17 18/12/18 19/13/19
f  20/14/20 19/13/20 18/12/18
f  19/13/19 20/14/20 21/15/21
f  22/16/22 21/15/22 20/14/20
f  21/15/21 22/16/22 23/17/23
f  24/18/24 23/17/24 22/16/22
f  23/17/23 24/18/24 25/19/25
f  26/20/26 25/19/26 24/18/24
f  25/19/25 26/20/26 27/21/27
f  18/12/18 27/21/18 26/20/26
f  27/21/27 18/12/18 17/11/17
f  28/11/28 29/12/29 30/21/19
f  31/20/30 30/21/30 29/12/29
f  30/21/19 31/20/30 32/19/21
f  33/18/31 32/19/31 31/20/30
f  32/19/21 33/18/31 34/17/23
f  35/16/32 34/17/32 33/18/31
f  34/17/23 35/16/32 36/15/25
f  37/14/33 36/15/33 35/16/32
f  36/15/25 37/14/33 38/13/27
f  17/22/17 19/22/19 39/22/34
f  40/22/35 39/22/35 19/22/19
f  39/22/34 40/22/35 41/22/36
f  23/22/23 41/22/23 40/22/35
f  41/22/36 23/22/23 25/22/25
f  34/22/23 36/22/25 42/22/36
f  38/22/27 42/22/27 36/22/25
f  42/22/36 38/22/27 43/22/34
f  28/22/28 43/22/28 38/22/27
f  43/22/34 28/22/28 30/22/19
f  37/23/33 31/24/30 44/25/37
f  29/26/29 44/25/29 31/24/30
f  44/25/37 29/26/29 37/23/33
f  45/27/38 46/27/39 47/27/40
f  48/27/23 47/27/23 46/27/39
f  47/27/40 48/27/23 45/27/38
f  49/28/41 50/29/42 51/30/43
f  52/31/44 51/30/44 50/29/42
f  51/30/43 52/31/44 53/29/45
f  17/22/17 39/22/34 27/22/27
f  41/22/36 27/22/36 39/22/34
f  27/22/27 41/22/36 25/22/25
f  42/22/36 43/22/34 54/22/35
f  30/22/19 54/22/19 43/22/34
f  54/22/35 30/22/19 32/22/21
f  26/24/26 20/23/20 55/25/46
f  18/26/18 55/25/18 20/23/20
f  55/25/46 18/26/18 26/24/26
f  56/32/47 57/33/48 58/34/49
f  59/35/50 58/34/50 57/33/48
f  60/34/47 61/32/51 57/35/48
f  62/33/52 57/35/52 61/32/51
f  11/36/53 13/37/53 9/38/53
f  7/39/53 9/38/53 13/37/53
f  3/40/53 5/41/53 1/42/53
f  15/43/53 1/42/53 5/41/53
f  13/37/53 15/43/53 7/39/53
f  5/41/53 7/39/53 15/43/53
f  19/22/19 21/22/21 40/22/35
f  23/22/23 40/22/23 21/22/21
f  24/18/24 22/16/22 26/20/26
f  20/14/20 26/20/20 22/16/22
f  42/22/36 54/22/35 34/22/23
f  32/22/21 34/22/21 54/22/35
f  28/11/28 38/13/27 29/12/29
f  37/14/33 29/12/33 38/13/27
f  33/18/31 31/20/30 35/16/32
f  37/14/33 35/16/33 31/20/30
f  51/30/43 53/29/45 49/28/41

# Mesh 'skl_root-mesh' with 5 faces
g skl_root-mesh
usemtl mat_bombhei_bill
f  63/44/41 64/45/41 65/46/41
f  66/47/41 65/46/41 64/45/41
f  67/47/41 68/45/41 69/46/41
f  70/44/41 69/46/41 68/45/41
f  71/48/41 72/49/41 73/50/41 74/51/41

