# File produced by Open Asset Import Library (http://www.assimp.sf.net)
# (assimp v5.0.0)

mtllib Mario64_Cap.mtl

# 84 vertex positions
v  24.850746 -10.189838 125.38216
v  18.557755 -19.29003 151.20334
v  7.982512 -26.779367 136.41765
v  -4.9999999e-06 -25.469152 155.91216
v  -7.9825158 -26.779367 136.41765
v  -18.557756 -19.29003 151.20334
v  -24.850748 -10.189838 125.38216
v  16.748377 -36.552422 130.07063
v  10.736146 -25.417086 130.56348
v  -4.9999999e-06 -42.339012 131.90973
v  -9.2758226 -27.804361 130.42838
v  -16.748381 -36.552422 130.07063
v  34.873966 -0.74592602 134.82051
v  29.535843 1.4473929 117.51684
v  32.101692 12.81649 121.01221
v  23.036228 12.784631 110.60397
v  11.354446 -3.584085 156.96944
v  14.04129 26.258982 104.2247
v  18.685328 21.433058 129.95607
v  -11.354451 -3.584085 156.96944
v  13.150954 34.574432 119.47744
v  -34.87397 -0.74592602 134.82051
v  -29.535849 1.4473929 117.51684
v  -18.685331 21.433058 129.95607
v  -32.101696 12.81649 121.01221
v  -23.036232 12.784631 110.60397
v  -14.041295 26.258982 104.2247
v  -13.150954 34.574432 119.47744
v  -13.298545 34.581482 107.74636
v  13.29854 34.581482 107.74636
v  0.034480002 -0.41594699 132.68097
v  0 -25.025805 132.62653
v  -1.554304 -25.809622 137.33647
v  -9.2758179 -23.20257 130.42839
v  10.736141 -20.815294 130.56348
v  -14.285456 -20.512613 142.05548
v  -18.81567 -16.255232 130.61145
v  16.051729 -18.775797 141.32155
v  18.81567 -16.255232 130.61145
v  -20.687435 -12.505472 136.33693
v  -24.85075 -10.189838 125.38216
v  20.687435 -12.505472 136.33693
v  24.85075 -10.189838 125.38216
v  -28.017784 0.95758802 132.82433
v  -29.535847 1.4473929 117.51685
v  28.017784 0.95758802 132.82433
v  29.535847 1.4473929 117.51685
v  20.111122 -12.03871 144.56204
v  10.236759 -19.597734 144.54854
v  21.568394 17.788654 122.02268
v  23.036232 12.784631 110.60397
v  5.8085251 -23.776529 144.72757
v  0 -8.5781536 146.94682
v  -5.0499892 -24.134241 147.07918
v  -8.008832 -16.912539 147.10913
v  -20.111122 -12.03871 144.56204
v  -15.499287 0.14855801 145.05701
v  15.499287 0.14855801 145.05701
v  0 5.4499512 145.36751
v  18.80228 13.271326 136.46918
v  -18.80228 13.271326 136.46918
v  0 19.039581 131.09787
v  12.233393 25.787842 118.21288
v  -21.568394 17.788654 122.02268
v  -12.233393 25.787842 118.21288
v  -14.04129 26.258982 104.2247
v  -20.344944 11.338637 101.53246
v  0 26.906063 119.05247
v  0 26.258982 104.2247
v  20.344944 11.338637 101.53246
v  0 30.867041 95.481697
v  15.838871 29.336952 102.66235
v  9.9832916 31.041006 97.055
v  23.23452 22.284517 95.352829
v  15 13.129408 91.28199
v  17.574406 30.406609 97.055
v  15 22.927197 89.919518
v  0 13.129408 91.28199
v  -15 22.927197 89.919518
v  -15 13.129408 91.28199
v  -9.9832916 31.041006 97.055
v  -23.23452 22.284517 95.352829
v  -15.838871 29.336952 102.66235
v  -17.574406 30.406609 97.055

# 49 UV coordinates
vt 1.0048831 0.212891 0
vt 0.80810499 0.66973901 0
vt 0.62451202 0.38330099 0
vt 0.49987799 0.73873901 0
vt 0.37524399 0.38330099 0
vt 0.19143701 0.66973901 0
vt -0.0051270002 0.212891 0
vt 0.71386701 0.70153803 0
vt 0.70605499 0.70608503 0
vt 0.70019501 0.70654303 0
vt 0.68994099 0.70785499 0
vt 0.68090802 0.70642102 0
vt 0.67382801 0.70608503 0
vt 0.66601598 0.70153803 0
vt 0.69751 0.71218902 0
vt 0.68212903 0.71218902 0
vt 0.72338903 0.71066302 0
vt 0.71826202 0.69397002 0
vt 0.70776403 0.72644001 0
vt 0.72094703 0.69732702 0
vt 0.71215802 0.68731701 0
vt 0.70092797 0.73199499 0
vt 0.70336902 0.68115199 0
vt 0.68994099 0.73097199 0
vt 0.70800799 0.70596302 0
vt 0.67895502 0.73199499 0
vt 0.67211902 0.72644001 0
vt 0.70263702 0.695862 0
vt 0.65625 0.71066302 0
vt 0.66137701 0.69397002 0
vt 0.671875 0.70596302 0
vt 0.65893602 0.69732702 0
vt 0.66772503 0.68731701 0
vt 0.67627001 0.68115199 0
vt 0.67724597 0.695862 0
vt 0.67700201 0.68457001 0
vt 0.70263702 0.68457001 0
vt 0.69799799 0.304932 0
vt 0.70483398 0.29199201 0
vt 0.69360399 0.29833999 0
vt 0.69042999 0.29296899 0
vt 0.71166998 0.304932 0
vt 0.69287097 0.28735399 0
vt 0.71582001 0.29833999 0
vt 0.70019501 0.27880901 0
vt 0.71899402 0.29296899 0
vt 0.709961 0.27978501 0
vt 0.71679699 0.28735399 0
vt 0.27118 0.73075801 0

# 101 vertex normals
vn 0.76845598 -0.63990301 0
vn 0.68447101 -0.51225698 0.51874101
vn 0.477855 -0.71108401 0.51576501
vn 0 -0.65547502 0.75521702
vn -0.477855 -0.71108401 0.51576501
vn -0.68447101 -0.51225698 0.51874101
vn -0.76845598 -0.63990301 0
vn -0.25239801 -0.094053 -0.96304202
vn -0.164542 -0.044996001 -0.98534298
vn -0.142814 -0.074744001 -0.98692298
vn 0.0039149998 -0.062568001 -0.99803299
vn 0.109534 -0.089991003 -0.98990101
vn 0.144821 -0.081665002 -0.98608202
vn 0.183883 -0.117693 -0.97587699
vn 0.44757399 -0.16774499 0.87837303
vn 0 -0.34694201 0.93788701
vn -0.44757399 -0.16774499 0.87837303
vn 0.86332601 0.14879601 0.48221099
vn 0.88317299 -0.235028 -0.40591601
vn 0.892277 0.450239 0.033569999
vn 0.74545699 0.150598 -0.64931798
vn 0.162181 0.576428 0.800892
vn 0.34654 0.38373101 -0.85595602
vn 0.180134 0.69649303 0.69458503
vn -0.162181 0.576428 0.800892
vn 0.168318 0.83958602 0.51649201
vn -0.86332601 0.14879601 0.48221099
vn -0.88317299 -0.235028 -0.40591601
vn -0.180134 0.69649303 0.69458503
vn -0.892277 0.450239 0.033569999
vn -0.74545699 0.150598 -0.64931798
vn -0.34654 0.38373101 -0.85595602
vn -0.168318 0.83958602 0.51649201
vn -0.25407499 0.84615397 -0.46847501
vn 0.25407499 0.84615397 -0.46847501
vn 0.109479 -0.69768798 -0.70798701
vn 0.0078309998 -0.409105 -0.91245401
vn 0.34833699 -0.59890598 -0.72109097
vn 0.354229 -0.54601997 -0.75919902
vn -0.109479 -0.69768798 -0.70798701
vn 0.34992099 -0.209571 -0.91303599
vn -0.34887201 -0.59960502 -0.72025102
vn 0.152775 0.029008999 -0.98783499
vn -0.356139 -0.54583299 -0.75844002
vn -0.148761 0.019072 -0.98868901
vn -0.35793599 -0.23713 -0.90313399
vn 0.16052499 -0.98089898 -0.109858
vn -0.0058650002 -0.99984199 0.016785
vn -0.45189601 -0.89196497 -0.013734
vn 0.403267 -0.91466999 -0.027463
vn -0.56761402 -0.76940697 0.29296201
vn -0.71313697 -0.69921398 0.050353002
vn 0.54783499 -0.82366002 0.146496
vn 0.68143302 -0.73044801 0.045772001
vn -0.85183299 -0.50507301 0.13885701
vn -0.90308702 -0.39690101 0.164024
vn 0.85964102 -0.49209499 0.137329
vn 0.90308702 -0.39690101 0.164024
vn -0.914729 0.160616 0.370774
vn -0.967426 0.244908 0.064088002
vn 0.914729 0.160616 0.370774
vn 0.967426 0.244908 0.064088002
vn 0.53877902 -0.105525 0.83581197
vn 0.17804 -0.196063 0.964293
vn 0.776425 0.61221403 0.149525
vn 0.86730802 0.47380501 -0.152594
vn 0.33639899 -0.69425601 0.63627398
vn 0.025387 0.035082001 0.999062
vn -0.099745996 -0.64062399 0.76134902
vn -0.201286 -0.032784998 0.978984
vn -0.59850299 -0.119529 0.792153
vn -0.35200101 0.26229301 0.898498
vn 0.35200101 0.26229301 0.898498
vn 0 0.49889401 0.86666298
vn 0.40705201 0.65969598 0.631751
vn -0.40705201 0.65969598 0.631751
vn 0 0.79444999 0.60733002
vn 0.22715899 0.94621003 0.23040199
vn -0.776425 0.61221403 0.149525
vn -0.86730802 0.47380501 -0.152594
vn -0.22715899 0.94621003 0.23040199
vn -0.34849399 0.92416799 0.15641201
vn -0.98547798 0.097746998 -0.13884801
vn 0 0.98281002 0.184622
vn 0 0.99214202 0.12511399
vn 0.34849399 0.92416799 0.15641201
vn 0.98547798 0.097746998 -0.13884801
vn 0 0.52553302 -0.85077298
vn 0.545816 0.481249 0.68591797
vn 0.01173 0.96928501 -0.24565899
vn 0.99454302 0.086217001 -0.058749001
vn 0.066455998 -0.013539 -0.99769801
vn 0.49324501 0.79861498 -0.344852
vn 0.0020020001 0.177928 -0.98404199
vn 0 0.101845 -0.99479997
vn -0.0020020001 0.177928 -0.98404199
vn -0.066455998 -0.013539 -0.99769801
vn -0.01173 0.96928501 -0.24565899
vn -0.99454302 0.086217001 -0.058749001
vn -0.545816 0.481249 0.68591797
vn -0.49324501 0.79861498 -0.344852

# Mesh '' with 150 faces
usemtl Texture_0
f  1/1/1 2/2/2 3/3/3
f  2/2/2 4/4/4 3/3/3
f  3/3/3 4/4/4 5/5/5
f  4/4/4 6/6/6 5/5/5
f  5/5/5 6/6/6 7/7/7
f  1/8/8 8/9/9 9/10/10
f  8/9/9 10/11/11 9/10/10
f  9/10/10 10/11/11 11/12/12
f  10/11/11 12/13/13 11/12/12
f  11/12/12 12/13/13 7/14/14
f  1/8/1 3/15/3 8/9/15
f  3/15/3 10/11/16 8/9/15
f  5/16/5 10/11/16 3/15/3
f  12/13/17 10/11/16 5/16/5
f  7/14/7 12/13/17 5/16/5
f  13/17/18 1/8/1 14/18/19
f  13/17/18 2/19/2 1/8/1
f  15/20/20 13/17/18 14/18/19
f  15/20/20 14/18/19 16/21/21
f  13/17/18 17/22/22 2/19/2
f  18/23/23 15/20/20 16/21/21
f  17/22/22 4/24/4 2/19/2
f  15/20/20 19/25/24 13/17/18
f  13/17/18 19/25/24 17/22/22
f  20/26/25 4/24/4 17/22/22
f  19/25/24 20/26/25 17/22/22
f  20/26/25 6/27/6 4/24/4
f  15/20/20 21/28/26 19/25/24
f  22/29/27 6/27/6 20/26/25
f  22/29/27 7/14/7 6/27/6
f  23/30/28 7/14/7 22/29/27
f  24/31/29 20/26/25 19/25/24
f  24/31/29 22/29/27 20/26/25
f  21/28/26 24/31/29 19/25/24
f  25/32/30 23/30/28 22/29/27
f  25/32/30 22/29/27 24/31/29
f  25/32/30 26/33/31 23/30/28
f  25/32/30 27/34/32 26/33/31
f  28/35/33 24/31/29 21/28/26
f  28/35/33 25/32/30 24/31/29
f  29/36/34 27/34/32 25/32/30
f  29/36/34 25/32/30 28/35/33
f  29/36/34 18/23/23 27/34/32
f  30/37/35 28/35/33 21/28/26
f  29/36/34 28/35/33 30/37/35
f  29/36/34 30/37/35 18/23/23
f  30/37/35 21/28/26 15/20/20
f  30/37/35 15/20/20 18/23/23
f  27/38/36 31/39/37 26/40/38
f  26/40/38 31/39/37 23/41/39
f  27/38/36 18/42/40 31/39/37
f  23/41/39 31/39/37 7/43/41
f  18/42/40 16/44/42 31/39/37
f  7/43/41 31/39/37 11/45/43
f  16/44/42 14/46/44 31/39/37
f  11/45/43 31/39/37 9/47/45
f  14/46/44 1/48/46 31/39/37
f  31/39/37 1/48/46 9/47/45
f  32/49/47 33/49/48 34/49/49
f  32/49/47 35/49/50 33/49/48
f  34/49/49 33/49/48 36/49/51
f  34/49/49 36/49/51 37/49/52
f  35/49/50 38/49/53 33/49/48
f  35/49/50 39/49/54 38/49/53
f  37/49/52 36/49/51 40/49/55
f  37/49/52 40/49/55 41/49/56
f  39/49/54 42/49/57 38/49/53
f  39/49/54 43/49/58 42/49/57
f  40/49/55 44/49/59 41/49/56
f  41/49/56 44/49/59 45/49/60
f  43/49/58 46/49/61 42/49/57
f  43/49/58 47/49/62 46/49/61
f  38/49/53 42/49/57 48/49/63
f  42/49/57 46/49/61 48/49/63
f  38/49/53 48/49/63 49/49/64
f  47/49/62 50/49/65 46/49/61
f  47/49/62 51/49/66 50/49/65
f  38/49/53 49/49/64 52/49/67
f  38/49/53 52/49/67 33/49/48
f  48/49/63 53/49/68 49/49/64
f  52/49/67 49/49/64 53/49/68
f  52/49/67 54/49/69 33/49/48
f  52/49/67 53/49/68 54/49/69
f  33/49/48 54/49/69 36/49/51
f  54/49/69 55/49/70 36/49/51
f  54/49/69 53/49/68 55/49/70
f  56/49/71 36/49/51 55/49/70
f  56/49/71 55/49/70 53/49/68
f  40/49/55 36/49/51 56/49/71
f  40/49/55 56/49/71 44/49/59
f  56/49/71 53/49/68 57/49/72
f  56/49/71 57/49/72 44/49/59
f  48/49/63 58/49/73 53/49/68
f  48/49/63 46/49/61 58/49/73
f  53/49/68 59/49/74 57/49/72
f  53/49/68 58/49/73 59/49/74
f  58/49/73 46/49/61 60/49/75
f  58/49/73 60/49/75 59/49/74
f  60/49/75 46/49/61 50/49/65
f  57/49/72 59/49/74 61/49/76
f  57/49/72 61/49/76 44/49/59
f  59/49/74 60/49/75 62/49/77
f  59/49/74 62/49/77 61/49/76
f  60/49/75 50/49/65 63/49/78
f  60/49/75 63/49/78 62/49/77
f  64/49/79 44/49/59 61/49/76
f  45/49/60 44/49/59 64/49/79
f  45/49/60 64/49/79 26/49/80
f  61/49/76 62/49/77 65/49/81
f  64/49/79 61/49/76 65/49/81
f  64/49/79 66/49/82 26/49/80
f  64/49/79 65/49/81 66/49/82
f  26/49/80 66/49/82 67/49/83
f  65/49/81 62/49/77 68/49/84
f  62/49/77 63/49/78 68/49/84
f  65/49/81 68/49/84 69/49/85
f  63/49/78 69/49/85 68/49/84
f  65/49/81 69/49/85 66/49/82
f  50/49/65 18/49/86 63/49/78
f  63/49/78 18/49/86 69/49/85
f  51/49/66 18/49/86 50/49/65
f  51/49/66 70/49/87 18/49/86
f  69/49/85 71/49/88 66/49/82
f  69/49/85 18/49/86 71/49/88
f  70/49/87 72/49/89 18/49/86
f  71/49/88 18/49/86 73/49/90
f  72/49/89 73/49/90 18/49/86
f  70/49/87 74/49/91 72/49/89
f  70/49/87 75/49/92 74/49/91
f  72/49/89 76/49/93 73/49/90
f  74/49/91 76/49/93 72/49/89
f  77/49/94 73/49/90 76/49/93
f  74/49/91 77/49/94 76/49/93
f  74/49/91 75/49/92 77/49/94
f  71/49/88 73/49/90 77/49/94
f  75/49/92 78/49/95 77/49/94
f  71/49/88 77/49/94 78/49/95
f  79/49/96 71/49/88 78/49/95
f  80/49/97 79/49/96 78/49/95
f  81/49/98 71/49/88 79/49/96
f  66/49/82 71/49/88 81/49/98
f  82/49/99 79/49/96 80/49/97
f  67/49/83 82/49/99 80/49/97
f  67/49/83 66/49/82 83/49/100
f  67/49/83 83/49/100 82/49/99
f  83/49/100 66/49/82 81/49/98
f  82/49/99 84/49/101 79/49/96
f  83/49/100 84/49/101 82/49/99
f  81/49/98 79/49/96 84/49/101
f  83/49/100 81/49/98 84/49/101

