# Blender 4.4.1
# www.blender.org
mtllib question.mtl
o hatena_model-node
v 9.375000 9.375000 -18.750000
v 9.375000 -9.375000 -18.750000
v -9.375000 9.375000 -18.750000
v -9.375000 -9.375000 -18.750000
v -9.375000 -9.375000 0.000000
v -9.375000 -9.375000 -18.750000
v 9.375000 -9.375000 0.000000
v 9.375000 -9.375000 -18.750000
v -9.375000 9.375000 -18.750000
v -9.375000 9.375000 0.000000
v 9.375000 9.375000 -18.750000
v 9.375000 9.375000 0.000000
v 9.375000 -9.375000 0.000000
v 9.375000 -9.375000 -18.750000
v 9.375000 9.375000 0.000000
v 9.375000 9.375000 -18.750000
v -9.375000 -9.375000 -18.750000
v -9.375000 -9.375000 0.000000
v -9.375000 9.375000 -18.750000
v -9.375000 9.375000 0.000000
v -9.375000 9.375000 0.000000
v -9.375000 -9.375000 0.000000
v 9.375000 9.375000 0.000000
v 9.375000 -9.375000 0.000000
vn -0.0000 -0.0000 -1.0000
vn -0.0000 -1.0000 -0.0000
vn -0.0000 1.0000 -0.0000
vn 1.0000 -0.0000 -0.0000
vn -1.0000 -0.0000 -0.0000
vn -0.0000 -0.0000 1.0000
vt 1.000000 0.000000
vt 1.000000 -0.500000
vt 0.000000 0.000000
vt 0.000000 -0.500000
vt 1.000000 -1.500000
vt 1.000000 -2.000000
vt 0.000000 -1.500000
vt 0.000000 -2.000000
vt 0.000000 0.500000
vt 1.000000 0.500000
vt 2.000000 0.500000
vt 2.000000 0.000000
vt -1.000000 0.000000
vt -1.000000 0.500000
vt 0.000000 -2.500000
vt 1.000000 -2.500000
s 0
usemtl hatena_red-material
f 1/1/1 2/2/1 3/3/1
f 4/4/1 3/3/1 2/2/1
f 5/5/2 4/6/2 7/7/2
f 2/8/2 7/7/2 4/6/2
f 3/3/3 10/9/3 1/1/3
f 12/10/3 1/1/3 10/9/3
f 7/11/4 2/12/4 12/10/4
f 1/1/4 12/10/4 2/12/4
f 4/13/5 5/14/5 3/3/5
f 10/9/5 3/3/5 5/14/5
f 10/15/6 5/8/6 12/16/6
f 7/6/6 12/16/6 5/8/6
